<?xml version="1.0" encoding="UTF-8" standalone="no"?>
<!-- Created with Inkscape (http://www.inkscape.org/) -->

<svg
   xmlns:dc="http://purl.org/dc/elements/1.1/"
   xmlns:cc="http://creativecommons.org/ns#"
   xmlns:rdf="http://www.w3.org/1999/02/22-rdf-syntax-ns#"
   xmlns:svg="http://www.w3.org/2000/svg"
   xmlns="http://www.w3.org/2000/svg"
   xmlns:sodipodi="http://sodipodi.sourceforge.net/DTD/sodipodi-0.dtd"
   xmlns:inkscape="http://www.inkscape.org/namespaces/inkscape"
   width="44"
   height="44"
   id="svg3138"
   version="1.1"
   inkscape:version="0.48.4 r9939"
   sodipodi:docname="Nytt dokument 5">
  <defs
     id="defs3140" />
  <sodipodi:namedview
     id="base"
     pagecolor="#ffffff"
     bordercolor="#666666"
     borderopacity="1.0"
     inkscape:pageopacity="0.0"
     inkscape:pageshadow="2"
     inkscape:zoom="15.839192"
     inkscape:cx="21.278843"
     inkscape:cy="21.852287"
     inkscape:document-units="px"
     inkscape:current-layer="layer1"
     showgrid="true"
     inkscape:window-width="1280"
     inkscape:window-height="997"
     inkscape:window-x="0"
     inkscape:window-y="27"
     inkscape:window-maximized="1">
    <inkscape:grid
       type="xygrid"
       id="grid3146"
       empspacing="5"
       visible="true"
       enabled="true"
       snapvisiblegridlinesonly="true" />
  </sodipodi:namedview>
  <metadata
     id="metadata3143">
    <rdf:RDF>
      <cc:Work
         rdf:about="">
        <dc:format>image/svg+xml</dc:format>
        <dc:type
           rdf:resource="http://purl.org/dc/dcmitype/StillImage" />
        <dc:title></dc:title>
      </cc:Work>
    </rdf:RDF>
  </metadata>
  <g
     inkscape:label="Layer 1"
     inkscape:groupmode="layer"
     id="layer1"
     transform="translate(0,-1008.3622)">
    <path
       sodipodi:type="arc"
       style="fill:none;stroke:#606060;stroke-width:2.09523821000000021;stroke-linecap:round;stroke-linejoin:round;stroke-miterlimit:4;stroke-opacity:1;stroke-dasharray:none"
       id="path3148"
       sodipodi:cx="22"
       sodipodi:cy="22"
       sodipodi:rx="22"
       sodipodi:ry="22"
       d="M 44,22 A 22,22 0 1 1 0,22 22,22 0 1 1 44,22 z"
       transform="matrix(0.95454545,0,0,0.95454545,1,1009.3622)" />
    <g
       style="font-size:40px;font-style:normal;font-variant:normal;font-weight:normal;font-stretch:normal;line-height:125%;letter-spacing:0px;word-spacing:0px;fill:#606060;fill-opacity:1;stroke:none;font-family:Parisian;-inkscape-font-specification:Parisian"
       id="text3918"
       transform="translate(-5.3437505,4.4629)">
      <path
         d="m 29.667969,1032.9794 -4.980469,0 c -0.01303,-0.7162 -0.01954,-1.1524 -0.01953,-1.3086 -10e-6,-1.6146 0.266917,-2.9427 0.800781,-3.9844 0.533843,-1.0417 1.60155,-2.2135 3.203125,-3.5156 1.601547,-1.3021 2.558578,-2.155 2.871094,-2.5586 0.481754,-0.638 0.722639,-1.3411 0.722656,-2.1094 -1.7e-5,-1.0677 -0.429704,-1.9791 -1.289063,-2.7344 -0.846369,-0.7682 -1.992201,-1.1523 -3.4375,-1.1523 -1.39324,0 -2.558603,0.3971 -3.496093,1.1914 -0.937508,0.7943 -1.582039,2.0052 -1.933594,3.6328 l -5.039063,-0.625 c 0.143227,-2.3307 1.13281,-4.3099 2.96875,-5.9375 1.848952,-1.6276 4.270825,-2.4414 7.265625,-2.4414 3.151027,0 5.657535,0.8269 7.519532,2.4805 1.861957,1.6406 2.792946,3.5547 2.792968,5.7422 -2.2e-5,1.2109 -0.345074,2.3567 -1.035156,3.4375 -0.677104,1.0807 -2.135436,2.5521 -4.375,4.414 -1.15887,0.9636 -1.881525,1.7383 -2.167969,2.3242 -0.273452,0.586 -0.39715,1.6342 -0.371093,3.1446 m -4.980469,7.3828 0,-5.4883 5.488281,0 0,5.4883 -5.488281,0"
         style="font-weight:bold;fill:#606060;fill-opacity:1;font-family:Arial;-inkscape-font-specification:Arial Bold"
         id="path3923"
         inkscape:connector-curvature="0" />
    </g>
  </g>
</svg>
