<?xml version="1.0" encoding="UTF-8" standalone="no"?>
<!-- Created with Inkscape (http://www.inkscape.org/) -->

<svg
   xmlns:dc="http://purl.org/dc/elements/1.1/"
   xmlns:cc="http://creativecommons.org/ns#"
   xmlns:rdf="http://www.w3.org/1999/02/22-rdf-syntax-ns#"
   xmlns:svg="http://www.w3.org/2000/svg"
   xmlns="http://www.w3.org/2000/svg"
   xmlns:sodipodi="http://sodipodi.sourceforge.net/DTD/sodipodi-0.dtd"
   xmlns:inkscape="http://www.inkscape.org/namespaces/inkscape"
   width="44"
   height="44"
   id="svg3138"
   version="1.1"
   inkscape:version="0.48.4 r9939"
   sodipodi:docname="settings.svg">
  <defs
     id="defs3140" />
  <sodipodi:namedview
     id="base"
     pagecolor="#ffffff"
     bordercolor="#666666"
     borderopacity="1.0"
     inkscape:pageopacity="0.0"
     inkscape:pageshadow="2"
     inkscape:zoom="15.839192"
     inkscape:cx="21.278843"
     inkscape:cy="24.377668"
     inkscape:document-units="px"
     inkscape:current-layer="layer1"
     showgrid="true"
     inkscape:window-width="1280"
     inkscape:window-height="997"
     inkscape:window-x="0"
     inkscape:window-y="27"
     inkscape:window-maximized="1">
    <inkscape:grid
       type="xygrid"
       id="grid3146"
       empspacing="5"
       visible="true"
       enabled="true"
       snapvisiblegridlinesonly="true" />
  </sodipodi:namedview>
  <metadata
     id="metadata3143">
    <rdf:RDF>
      <cc:Work
         rdf:about="">
        <dc:format>image/svg+xml</dc:format>
        <dc:type
           rdf:resource="http://purl.org/dc/dcmitype/StillImage" />
        <dc:title></dc:title>
      </cc:Work>
    </rdf:RDF>
  </metadata>
  <g
     inkscape:label="Layer 1"
     inkscape:groupmode="layer"
     id="layer1"
     transform="translate(0,-1008.3622)">
    <path
       style="fill:#606060;fill-opacity:1;stroke:#606060;stroke-width:2;stroke-linecap:round;stroke-linejoin:round;stroke-miterlimit:4;stroke-opacity:1"
       d="M 18.25 1.34375 C 17.100488 1.5517036 15.982784 1.8632733 14.90625 2.25 C 15.188191 3.8579548 14.495837 5.5426282 13 6.40625 C 11.498897 7.2729123 9.689425 7.0264888 8.4375 5.96875 C 7.5440758 6.7237747 6.7243157 7.5454354 5.96875 8.4375 C 7.0264888 9.6894251 7.2729123 11.498897 6.40625 13 C 5.5426282 14.495837 3.8579549 15.188191 2.25 14.90625 C 1.8622209 15.985563 1.5560475 17.100162 1.34375 18.25 C 2.8912488 18.802392 4 20.262733 4 22 C 4 23.737267 2.8912488 25.197608 1.34375 25.75 C 1.5517036 26.899512 1.8632734 28.017216 2.25 29.09375 C 3.8579548 28.811809 5.5426282 29.504163 6.40625 31 C 7.2729123 32.501103 7.0264887 34.310575 5.96875 35.5625 C 6.7237747 36.455924 7.5454355 37.275684 8.4375 38.03125 C 9.6894251 36.973511 11.498897 36.727088 13 37.59375 C 14.495837 38.457372 15.188191 40.142045 14.90625 41.75 C 15.985563 42.137779 17.100162 42.443952 18.25 42.65625 C 18.802392 41.108751 20.262733 40 22 40 C 23.737267 40 25.197608 41.108751 25.75 42.65625 C 26.897253 42.449396 28.019001 42.134258 29.09375 41.75 C 28.811809 40.142045 29.504163 38.457372 31 37.59375 C 32.501103 36.727088 34.310575 36.973511 35.5625 38.03125 C 36.450439 37.279388 37.279782 36.451715 38.03125 35.5625 C 36.973511 34.310575 36.727088 32.501103 37.59375 31 C 38.457372 29.504163 40.142045 28.811809 41.75 29.09375 C 42.136727 28.017216 42.448296 26.899512 42.65625 25.75 C 41.108751 25.197608 40 23.737267 40 22 C 40 20.262733 41.108751 18.802392 42.65625 18.25 C 42.443952 17.100162 42.137779 15.985563 41.75 14.90625 C 40.142045 15.188191 38.457372 14.495837 37.59375 13 C 36.727088 11.498897 36.973511 9.689425 38.03125 8.4375 C 37.275684 7.5454354 36.455924 6.7237747 35.5625 5.96875 C 34.310575 7.0264888 32.501103 7.2729123 31 6.40625 C 29.504163 5.5426282 28.811809 3.8579548 29.09375 2.25 C 28.017216 1.8632733 26.899512 1.5517036 25.75 1.34375 C 25.197608 2.8912488 23.737267 4 22 4 C 20.262733 4 18.802392 2.8912488 18.25 1.34375 z M 22 11 C 28.075133 11 33 15.924868 33 22 C 33 28.075132 28.075133 33 22 33 C 15.924867 33 11 28.075132 11 22 C 11 15.924868 15.924867 11 22 11 z "
       transform="translate(0,1008.3622)"
       id="path3148" />
  </g>
</svg>
